<svg width="24" height="16" viewBox="0 0 24 16" fill="none" xmlns="http://www.w3.org/2000/svg">
<path d="M7.10805 0C7.82734 0 8.48312 0.0634036 9.07548 0.190451C9.66785 0.317378 10.1756 0.525602 10.5986 0.8144C11.0217 1.10356 11.3496 1.48794 11.5823 1.96755C11.815 2.44716 11.9314 3.03941 11.9314 3.74454C11.9314 4.50622 11.7586 5.14086 11.4131 5.64845C11.0674 6.15616 10.5563 6.57212 9.87944 6.89658C10.8102 7.16461 11.5048 7.63377 11.9632 8.30335C12.4212 8.97341 12.6509 9.78097 12.6509 10.7257C12.6509 11.4872 12.5029 12.1467 12.2065 12.7039C11.9105 13.2612 11.5118 13.716 11.0115 14.068C10.5107 14.4208 9.93948 14.6815 9.29788 14.8511C8.65226 15.0207 7.98739 15.1059 7.31988 15.1047L0 15.1047V0H7.10805ZM6.685 6.11401C7.27737 6.11401 7.76382 5.97303 8.14472 5.69083C8.52551 5.40888 8.71584 4.95041 8.71584 4.31577C8.71584 3.96333 8.65243 3.67405 8.52551 3.44841C8.39858 3.2229 8.22938 3.04626 8.0178 2.91957C7.80621 2.79252 7.56292 2.70474 7.28793 2.65503C7.00509 2.60508 6.71837 2.58032 6.43114 2.58106L3.32137 2.58104V6.11413L6.685 6.11401ZM6.87533 12.5238C7.19955 12.5238 7.50997 12.492 7.80609 12.4286C8.10221 12.365 8.36303 12.2592 8.58891 12.1111C8.8143 11.9632 8.99419 11.7621 9.12832 11.5081C9.26221 11.2544 9.32922 10.93 9.32922 10.535C9.32922 9.75959 9.11043 9.20601 8.67345 8.87447C8.23611 8.54304 7.65791 8.3772 6.93873 8.3772H3.32137V12.5235L6.87533 12.5238ZM16.8307 12.2065C17.2819 12.6441 17.9307 12.8623 18.777 12.8623C19.3831 12.8623 19.9051 12.711 20.3422 12.4075C20.7795 12.1047 21.0475 11.7836 21.1462 11.445H23.7905C23.3676 12.7565 22.7185 13.6946 21.8443 14.2585C20.9697 14.8228 19.9119 15.1047 18.6709 15.1047C17.8107 15.1047 17.0348 14.9672 16.3438 14.6921C15.6526 14.4172 15.0672 14.0258 14.5881 13.5181C14.1085 13.0105 13.7383 12.4044 13.4774 11.6989C13.2163 10.9939 13.0861 10.2181 13.0861 9.37185C13.0861 8.55408 13.2198 7.79252 13.488 7.08728C13.7557 6.38227 14.1364 5.77225 14.6305 5.25722C15.1238 4.74266 15.7128 4.33714 16.3969 4.0409C17.0808 3.74466 17.8389 3.59671 18.671 3.59671C19.6019 3.59671 20.4127 3.77648 21.104 4.13613C21.7949 4.49565 22.3626 4.97923 22.8071 5.58516C23.2512 6.1917 23.5719 6.88289 23.7698 7.65827C23.9672 8.43412 24.0374 9.24492 23.9813 10.0911H16.0905C16.1326 11.0641 16.379 11.7695 16.8307 12.2065ZM20.226 6.4524C19.8665 6.05769 19.3197 5.86003 18.5866 5.86003C18.107 5.86003 17.7087 5.94133 17.3914 6.10332C17.0741 6.26579 16.8201 6.46633 16.6296 6.70625C16.4394 6.94618 16.3052 7.20015 16.2278 7.46782C16.1502 7.73584 16.1043 7.97565 16.0902 8.18711H20.977C20.836 7.42543 20.5858 6.84735 20.226 6.4524ZM15.5772 0.766968H21.683V2.45989H15.5772V0.766968Z" fill="white"/>
</svg>
