<svg width="28" height="21" viewBox="0 0 28 21" fill="none" xmlns="http://www.w3.org/2000/svg">
<path d="M2.625 0C1.17578 0 0 1.14965 0 2.56667C0 3.3741 0.388281 4.1334 1.05 4.62L12.95 13.3467C13.5734 13.8012 14.4266 13.8012 15.05 13.3467L26.95 4.62C27.6117 4.1334 28 3.3741 28 2.56667C28 1.14965 26.8242 0 25.375 0H2.625ZM0 5.98889V17.1111C0 18.9987 1.56953 20.5333 3.5 20.5333H24.5C26.4305 20.5333 28 18.9987 28 17.1111V5.98889L16.1 14.7156C14.8531 15.6299 13.1469 15.6299 11.9 14.7156L0 5.98889Z" fill="white"/>
</svg>
