<svg width="32" height="32" viewBox="0 0 32 32" fill="none" xmlns="http://www.w3.org/2000/svg">
<path fill-rule="evenodd" clip-rule="evenodd" d="M16 0C7.1625 0 0 7.1625 0 16C0 23.0662 4.585 29.0631 10.9412 31.1844C11.7387 31.3331 12.0369 30.8338 12.0369 30.4131C12.0369 30.0275 12.0194 28.7738 12.0194 27.4325C7.56562 28.3969 6.6275 25.5475 6.6275 25.5475C5.9 23.6975 4.8475 23.2069 4.8475 23.2069C3.39187 22.2162 4.9525 22.2337 4.9525 22.2337C6.55687 22.3475 7.4075 23.8819 7.4075 23.8819C8.83625 26.3281 11.1512 25.6175 12.0631 25.2144C12.2031 24.18 12.6244 23.4788 13.08 23.075C9.52938 22.6719 5.78562 21.295 5.78562 15.1669C5.78562 13.4225 6.40812 11.9931 7.43375 10.8713C7.26688 10.4681 6.72375 8.8375 7.59125 6.63688C7.59125 6.63688 8.9325 6.2075 11.9925 8.27625C13.2725 7.92562 14.64 7.74125 15.9994 7.74125C17.3581 7.75 18.7262 7.92562 20.0063 8.27625C23.0575 6.2075 24.3988 6.63688 24.3988 6.63688C25.2669 8.8375 24.7231 10.4681 24.5562 10.8713C25.5819 11.9937 26.2044 13.4225 26.2044 15.1669C26.2044 21.3125 22.4606 22.6625 18.9013 23.0575C19.4713 23.5575 19.9881 24.5306 19.9881 26.0206C19.9881 28.16 19.9706 29.8869 19.9706 30.4131C19.9706 30.8425 20.26 31.3338 21.0662 31.1844C27.4237 29.0631 32 23.075 32 16C32 7.1625 24.8375 0 16 0Z" fill="white"/>
<path d="M6.0581 22.9701C6.0231 23.0488 5.9006 23.0751 5.78622 23.0226C5.67247 22.9701 5.60185 22.8651 5.64622 22.7857C5.68122 22.7069 5.80372 22.6807 5.9181 22.7332C6.03185 22.7857 6.10185 22.8913 6.0581 22.9701Z" fill="white"/>
<path d="M6.70686 23.6975C6.62811 23.7675 6.47874 23.7325 6.38249 23.6275C6.27749 23.5137 6.25999 23.3644 6.33874 23.2944C6.41749 23.2244 6.55811 23.2594 6.66311 23.3644C6.76811 23.4781 6.78561 23.6275 6.70686 23.6975Z" fill="white"/>
<path d="M7.33806 24.6181C7.24181 24.6881 7.08368 24.6269 6.97868 24.4781C6.88243 24.3381 6.88243 24.1625 6.97868 24.0925C7.07493 24.0225 7.23306 24.0838 7.33806 24.2238C7.44306 24.3725 7.44306 24.5481 7.33806 24.6181Z" fill="white"/>
<path d="M8.20629 25.5037C8.11879 25.6 7.93442 25.5737 7.79442 25.4425C7.65442 25.3112 7.61879 25.1269 7.70692 25.0306C7.79504 24.9344 7.98754 24.9606 8.11879 25.0919C8.25879 25.2319 8.29379 25.4156 8.20629 25.5037Z" fill="white"/>
<path d="M9.39802 26.0206C9.36302 26.1431 9.17865 26.205 8.9949 26.1519C8.81052 26.0994 8.69677 25.95 8.73177 25.8275C8.76677 25.705 8.95115 25.6431 9.1349 25.6963C9.31052 25.7488 9.43302 25.8981 9.39802 26.0206Z" fill="white"/>
<path d="M10.7045 26.1176C10.7132 26.2488 10.5557 26.3632 10.3626 26.3632C10.1695 26.3719 10.0207 26.2582 10.012 26.1263C10.012 25.9951 10.1607 25.8807 10.3538 25.8807C10.547 25.8807 10.7045 25.9857 10.7045 26.1176Z" fill="white"/>
<path d="M11.923 25.9156C11.9493 26.0469 11.818 26.1788 11.6249 26.2138C11.4405 26.2488 11.2655 26.17 11.248 26.0381C11.2218 25.9069 11.3618 25.775 11.5462 25.74C11.7305 25.705 11.8968 25.7844 11.923 25.9156Z" fill="white"/>
</svg>
